<svg version="1.1" id="Layer_1" xmlns="http://www.w3.org/2000/svg" xmlns:xlink="http://www.w3.org/1999/xlink" x="0px" y="0px"
	 width="100%" viewBox="0 0 1248 862" enable-background="new 0 0 1248 862" xml:space="preserve">
<path fill="#FFFFFE" opacity="1.000000" stroke="none" 
	d="
M885.000000,863.000000 
	C590.034851,863.000000 295.569641,863.000000 1.052239,863.000000 
	C1.052239,575.735474 1.052239,288.470947 1.052239,1.103208 
	C416.881989,1.103208 832.763977,1.103208 1248.822998,1.103208 
	C1248.822998,288.333252 1248.822998,575.666626 1248.822998,863.000000 
	C1127.804077,863.000000 1006.652039,863.000000 885.000000,863.000000 
M1154.396484,368.183899 
	C1154.330566,365.760254 1154.264648,363.336639 1154.470215,360.018860 
	C1153.691528,350.738556 1153.512085,341.361969 1152.039062,332.193207 
	C1140.366089,259.540924 1070.303223,195.870178 983.749756,208.458237 
	C935.473328,215.479416 899.821289,242.266083 875.199646,283.766418 
	C859.862305,309.617828 854.428162,338.194122 854.487366,368.052917 
	C854.621155,435.531464 854.538818,503.010406 854.571472,570.489197 
	C854.575256,578.306396 854.749451,586.123413 854.640503,594.824768 
	C854.714539,597.236328 854.788513,599.647827 855.180969,602.794434 
	C880.749756,599.034973 906.318604,595.275452 932.220703,591.466919 
	C932.220703,555.359985 932.220703,520.155823 932.220703,485.232178 
	C980.894104,485.232178 1029.084351,485.232178 1077.619385,485.232178 
	C1077.619385,494.770508 1077.590576,503.910004 1077.625366,513.049255 
	C1077.695068,531.356995 1077.799561,549.664673 1077.857056,568.630249 
	C1078.235718,568.744507 1078.614502,568.858765 1079.843994,569.056213 
	C1096.729248,566.524475 1113.628784,564.083557 1130.493408,561.420837 
	C1138.388672,560.174377 1146.216309,558.499756 1154.345825,556.504333 
	C1154.293213,556.317627 1154.240723,556.130859 1154.452515,555.045044 
	C1154.458862,498.525818 1154.473022,442.006622 1154.458862,385.487396 
	C1154.457520,380.015015 1154.280518,374.542694 1154.396484,368.183899 
M418.656738,404.051544 
	C418.562744,402.420380 418.468750,400.789215 418.602539,398.304474 
	C418.524109,394.803894 418.445679,391.303345 418.640503,386.925385 
	C418.551788,380.992523 418.463074,375.059662 418.595795,368.381134 
	C418.519501,367.873749 418.443207,367.366333 418.641357,366.020386 
	C418.543793,363.391785 418.446228,360.763184 418.581940,357.296356 
	C418.502014,356.147736 418.422089,354.999084 418.622253,352.967377 
	C418.638031,306.153656 418.656525,259.339935 418.653748,212.526199 
	C418.653687,211.377731 418.417786,210.229263 418.483582,208.493393 
	C418.405151,208.302948 418.326721,208.112518 417.784973,207.151306 
	C392.646973,207.100494 367.508942,207.040268 342.370941,207.039673 
	C341.530609,207.039658 340.690277,207.642792 339.605927,208.498047 
	C339.669830,208.682770 339.733734,208.867493 339.528107,209.950851 
	C339.528107,275.686676 339.528107,341.422516 339.528107,407.123535 
	C292.143250,407.123535 245.572006,407.123535 198.535950,407.123535 
	C198.535950,340.314880 198.535950,273.885651 198.535950,207.255432 
	C171.841827,207.255432 145.614990,207.255432 119.234924,207.255432 
	C119.234924,375.260284 119.234924,542.993530 119.234924,711.133057 
	C145.824646,707.126160 172.080902,703.169556 198.571289,699.177673 
	C198.571289,627.538086 198.571289,556.439026 198.571289,485.136963 
	C245.627365,485.136963 292.360565,485.136963 339.617371,485.136963 
	C339.617371,550.168396 339.617371,614.903198 339.617371,680.190002 
	C365.175781,676.268555 390.141724,672.437988 415.965210,668.624268 
	C421.175385,666.910156 417.884125,662.831421 418.677368,658.933350 
	C418.586121,647.678955 418.494843,636.424622 418.628479,624.270386 
	C418.546265,622.119995 418.464050,619.969666 418.645905,617.284546 
	C418.557495,616.907532 418.469055,616.530457 418.609497,615.284912 
	C418.532654,613.798889 418.455811,612.312927 418.655029,609.946167 
	C418.670624,579.588867 418.695526,549.231506 418.688507,518.874207 
	C418.687744,515.571838 418.502655,512.269409 418.635132,508.142975 
	C418.561829,506.440796 418.488525,504.738647 418.687683,502.177734 
	C418.682739,478.453369 418.700104,454.728943 418.659515,431.004639 
	C418.647034,423.718658 418.475952,416.432922 418.609314,408.302185 
	C418.534302,407.144470 418.459320,405.986786 418.656738,404.051544 
M833.169312,311.093201 
	C828.403442,268.945618 807.230103,237.104980 769.584656,218.514114 
	C722.817322,195.418472 678.606018,202.410568 638.814819,236.346985 
	C637.439819,235.180740 636.182495,234.101196 634.911438,233.038086 
	C605.273560,208.249634 571.344788,199.977936 533.976013,208.859467 
	C480.480713,221.573837 443.974884,268.394287 443.895477,323.382233 
	C443.738098,432.368683 443.810822,541.355530 443.788635,650.342163 
	C443.787689,654.969238 443.788513,659.596313 443.788513,664.420227 
	C446.032928,664.202576 447.693756,664.120422 449.329163,663.871155 
	C472.361389,660.360657 495.366943,656.660400 518.439880,653.443298 
	C522.945679,652.815002 523.982849,651.385132 523.977722,647.029785 
	C523.849304,538.376587 523.843201,429.723114 523.901855,321.069794 
	C523.911926,302.432251 537.906006,286.109497 555.277710,283.957062 
	C575.912537,281.400391 592.861572,292.364105 597.516479,311.954010 
	C598.879089,317.688599 598.776489,323.850494 598.780579,329.816956 
	C598.850647,431.637726 598.831848,533.458496 598.832581,635.279297 
	C598.832581,637.192444 598.832581,639.105591 598.832581,641.260132 
	C601.233215,640.972473 602.887695,640.816406 604.528748,640.571106 
	C627.739380,637.100952 650.929810,633.485046 674.175598,630.269714 
	C678.102234,629.726624 678.967102,628.473083 678.963440,624.751953 
	C678.867493,526.930664 678.888916,429.109344 678.897705,331.287994 
	C678.898132,326.955780 678.665466,322.595581 679.061707,318.296387 
	C680.431458,303.434052 687.952942,292.376465 701.590271,286.621521 
	C715.869446,280.595673 729.670715,282.332153 741.620056,292.963562 
	C751.489380,301.744263 754.051270,313.182495 754.032654,325.915955 
	C753.892944,421.404053 753.950439,516.892456 753.946167,612.380798 
	C753.946106,614.175781 753.946106,615.970764 753.946106,618.265320 
	C779.344116,614.359741 804.158997,610.543884 829.783569,606.829102 
	C831.157043,606.467957 832.530518,606.106812 833.928345,605.739319 
	C833.928345,604.661682 833.928406,603.999207 833.928345,603.336670 
	C833.920532,508.675140 833.918823,414.013611 833.871277,319.352112 
	C833.870056,316.889771 833.367798,314.427734 833.169312,311.093201 
M180.500000,739.051025 
	C504.916077,739.051025 829.332153,739.051025 1154.156860,739.051025 
	C1154.156860,686.447266 1154.156860,634.575317 1154.156860,582.346313 
	C810.371460,634.354675 467.157257,686.276672 123.943069,738.198669 
	C123.969772,738.482300 123.996468,738.765930 124.023170,739.049561 
	C142.515442,739.049561 161.007721,739.049561 180.500000,739.051025 
z"/>
<path fill="#404040" opacity="1.000000" stroke="none" 
	d="
M828.973816,606.728027 
	C804.158997,610.543884 779.344116,614.359741 753.946106,618.265320 
	C753.946106,615.970764 753.946106,614.175781 753.946167,612.380798 
	C753.950439,516.892456 753.892944,421.404053 754.032654,325.915955 
	C754.051270,313.182495 751.489380,301.744263 741.620056,292.963562 
	C729.670715,282.332153 715.869446,280.595673 701.590271,286.621521 
	C687.952942,292.376465 680.431458,303.434052 679.061707,318.296387 
	C678.665466,322.595581 678.898132,326.955780 678.897705,331.287994 
	C678.888916,429.109344 678.867493,526.930664 678.963440,624.751953 
	C678.967102,628.473083 678.102234,629.726624 674.175598,630.269714 
	C650.929810,633.485046 627.739380,637.100952 604.528748,640.571106 
	C602.887695,640.816406 601.233215,640.972473 598.832581,641.260132 
	C598.832581,639.105591 598.832581,637.192444 598.832581,635.279297 
	C598.831848,533.458496 598.850647,431.637726 598.780579,329.816956 
	C598.776489,323.850494 598.879089,317.688599 597.516479,311.954010 
	C592.861572,292.364105 575.912537,281.400391 555.277710,283.957062 
	C537.906006,286.109497 523.911926,302.432251 523.901855,321.069794 
	C523.843201,429.723114 523.849304,538.376587 523.977722,647.029785 
	C523.982849,651.385132 522.945679,652.815002 518.439880,653.443298 
	C495.366943,656.660400 472.361389,660.360657 449.329163,663.871155 
	C447.693756,664.120422 446.032928,664.202576 443.788513,664.420227 
	C443.788513,659.596313 443.787689,654.969238 443.788635,650.342163 
	C443.810822,541.355530 443.738098,432.368683 443.895477,323.382233 
	C443.974884,268.394287 480.480713,221.573837 533.976013,208.859467 
	C571.344788,199.977936 605.273560,208.249634 634.911438,233.038086 
	C636.182495,234.101196 637.439819,235.180740 638.814819,236.346985 
	C678.606018,202.410568 722.817322,195.418472 769.584656,218.514114 
	C807.230103,237.104980 828.403442,268.945618 832.833374,311.823517 
	C832.344727,314.357941 832.058655,316.162018 832.058228,317.966156 
	C832.038025,411.371552 832.031494,504.776917 832.087402,598.182312 
	C832.089417,601.522949 832.212341,604.675232 828.973816,606.728027 
z"/>
<path fill="#414141" opacity="1.000000" stroke="none" 
	d="
M418.380615,616.153442 
	C418.469055,616.530457 418.557495,616.907532 418.169586,617.794189 
	C417.930023,620.592651 418.166779,622.881409 418.403564,625.170227 
	C418.494843,636.424622 418.586121,647.678955 418.198914,659.612610 
	C416.849487,663.063721 415.978577,665.835632 415.107666,668.607483 
	C390.141724,672.437988 365.175781,676.268555 339.617371,680.190002 
	C339.617371,614.903198 339.617371,550.168396 339.617371,485.136963 
	C292.360565,485.136963 245.627365,485.136963 198.571289,485.136963 
	C198.571289,556.439026 198.571289,627.538086 198.571289,699.177673 
	C172.080902,703.169556 145.824646,707.126160 119.234924,711.133057 
	C119.234924,542.993530 119.234924,375.260284 119.234924,207.255432 
	C145.614990,207.255432 171.841827,207.255432 198.535950,207.255432 
	C198.535950,273.885651 198.535950,340.314880 198.535950,407.123535 
	C245.572006,407.123535 292.143250,407.123535 339.528107,407.123535 
	C339.528107,341.422516 339.528107,275.686676 339.855072,209.407700 
	C340.268097,208.753372 340.445770,208.566986 340.425903,208.542816 
	C340.254089,208.333572 340.046722,208.153534 339.849945,207.964783 
	C340.690277,207.642792 341.530609,207.039658 342.370941,207.039673 
	C367.508942,207.040268 392.646973,207.100494 417.817139,207.648682 
	C417.996826,208.457642 418.144379,208.769211 418.291870,209.080795 
	C418.417786,210.229263 418.653687,211.377731 418.653748,212.526199 
	C418.656525,259.339935 418.638031,306.153656 418.160736,353.617249 
	C417.915710,355.556274 418.132202,356.845428 418.348663,358.134583 
	C418.446228,360.763184 418.543793,363.391785 418.216187,366.599121 
	C417.985474,367.827515 418.179901,368.477142 418.374329,369.126801 
	C418.463074,375.059662 418.551788,380.992523 418.154541,387.626373 
	C417.903961,391.937592 418.139374,395.547821 418.374756,399.158051 
	C418.468750,400.789215 418.562744,402.420380 418.192841,404.649719 
	C417.945129,406.547638 418.161316,407.847382 418.377533,409.147095 
	C418.475952,416.432922 418.647034,423.718658 418.659515,431.004639 
	C418.700104,454.728943 418.682739,478.453369 418.248535,502.731384 
	C418.007294,505.179047 418.205170,507.073029 418.403076,508.967041 
	C418.502655,512.269409 418.687744,515.571838 418.688507,518.874207 
	C418.695526,549.231506 418.670624,579.588867 418.182678,610.609619 
	C417.933746,612.899841 418.157166,614.526611 418.380615,616.153442 
z"/>
<path fill="#C8A44D" opacity="1.000000" stroke="none" 
	d="
M180.000000,739.050293 
	C161.007721,739.049561 142.515442,739.049561 124.023170,739.049561 
	C123.996468,738.765930 123.969772,738.482300 123.943069,738.198669 
	C467.157257,686.276672 810.371460,634.354675 1154.156860,582.346313 
	C1154.156860,634.575317 1154.156860,686.447266 1154.156860,739.051025 
	C829.332153,739.051025 504.916077,739.051025 180.000000,739.050293 
z"/>
<path fill="#404040" opacity="1.000000" stroke="none" 
	d="
M1154.074585,557.019165 
	C1146.216309,558.499756 1138.388672,560.174377 1130.493408,561.420837 
	C1113.628784,564.083557 1096.729248,566.524475 1079.302734,568.782593 
	C1078.470825,568.330078 1078.180298,568.151245 1077.889648,567.972351 
	C1077.799561,549.664673 1077.695068,531.356995 1077.625366,513.049255 
	C1077.590576,503.910004 1077.619385,494.770508 1077.619385,485.232178 
	C1029.084351,485.232178 980.894104,485.232178 932.220703,485.232178 
	C932.220703,520.155823 932.220703,555.359985 932.220703,591.466919 
	C906.318604,595.275452 880.749756,599.034973 855.333984,602.173462 
	C855.272888,599.015137 855.058777,596.477844 854.844604,593.940552 
	C854.749451,586.123413 854.575256,578.306396 854.571472,570.489197 
	C854.538818,503.010406 854.621155,435.531464 854.487366,368.052917 
	C854.428162,338.194122 859.862305,309.617828 875.199646,283.766418 
	C899.821289,242.266083 935.473328,215.479416 983.749756,208.458237 
	C1070.303223,195.870178 1140.366089,259.540924 1152.039062,332.193207 
	C1153.512085,341.361969 1153.691528,350.738556 1154.012085,360.715302 
	C1153.764404,363.964600 1153.974731,366.517487 1154.185059,369.070343 
	C1154.280518,374.542694 1154.457520,380.015015 1154.458862,385.487396 
	C1154.473022,442.006622 1154.458862,498.525818 1154.129883,555.584229 
	C1153.714722,556.226196 1153.527588,556.398254 1153.544067,556.420837 
	C1153.701294,556.634766 1153.892822,556.823303 1154.074585,557.019165 
M931.951050,397.461578 
	C931.951050,400.712189 931.951050,403.962799 931.951050,407.031708 
	C980.858704,407.031708 1029.058594,407.031708 1077.412720,407.031708 
	C1077.412720,390.237915 1077.730835,373.921875 1077.303101,357.625427 
	C1077.007202,346.350891 1073.639038,335.710388 1068.185791,325.763947 
	C1055.861938,303.285400 1037.497559,289.089722 1011.763245,286.032715 
	C972.594788,281.379913 937.878357,312.470459 933.218201,351.574493 
	C931.453735,366.380280 932.294983,381.496613 931.951050,397.461578 
z"/>
<path fill="#515150" opacity="1.000000" stroke="none" 
	d="
M829.378662,606.778564 
	C832.212341,604.675232 832.089417,601.522949 832.087402,598.182312 
	C832.031494,504.776917 832.038025,411.371552 832.058228,317.966156 
	C832.058655,316.162018 832.344727,314.357941 832.798340,312.259705 
	C833.367798,314.427734 833.870056,316.889771 833.871277,319.352112 
	C833.918823,414.013611 833.920532,508.675140 833.928345,603.336670 
	C833.928406,603.999207 833.928345,604.661682 833.928345,605.739319 
	C832.530518,606.106812 831.157043,606.467957 829.378662,606.778564 
z"/>
<path fill="#333331" opacity="1.000000" stroke="none" 
	d="
M415.536438,668.615845 
	C415.978577,665.835632 416.849487,663.063721 418.067810,660.053833 
	C417.884125,662.831421 421.175385,666.910156 415.536438,668.615845 
z"/>
<path fill="#333331" opacity="1.000000" stroke="none" 
	d="
M418.488647,398.731262 
	C418.139374,395.547821 417.903961,391.937592 418.017883,388.065063 
	C418.445679,391.303345 418.524109,394.803894 418.488647,398.731262 
z"/>
<path fill="#333331" opacity="1.000000" stroke="none" 
	d="
M418.519104,508.554993 
	C418.205170,507.073029 418.007294,505.179047 418.112305,503.160767 
	C418.488525,504.738647 418.561829,506.440796 418.519104,508.554993 
z"/>
<path fill="#2F2F2D" opacity="1.000000" stroke="none" 
	d="
M1154.290771,368.627136 
	C1153.974731,366.517487 1153.764404,363.964600 1153.876221,361.162354 
	C1154.264648,363.336639 1154.330566,365.760254 1154.290771,368.627136 
z"/>
<path fill="#2D2D2E" opacity="1.000000" stroke="none" 
	d="
M854.742554,594.382690 
	C855.058777,596.477844 855.272888,599.015137 855.174744,601.805908 
	C854.788513,599.647827 854.714539,597.236328 854.742554,594.382690 
z"/>
<path fill="#333331" opacity="1.000000" stroke="none" 
	d="
M418.516022,624.720337 
	C418.166779,622.881409 417.930023,620.592651 418.037537,618.061523 
	C418.464050,619.969666 418.546265,622.119995 418.516022,624.720337 
z"/>
<path fill="#333331" opacity="1.000000" stroke="none" 
	d="
M418.495056,615.719177 
	C418.157166,614.526611 417.933746,612.899841 418.044647,611.049927 
	C418.455811,612.312927 418.532654,613.798889 418.495056,615.719177 
z"/>
<path fill="#333331" opacity="1.000000" stroke="none" 
	d="
M418.465302,357.715454 
	C418.132202,356.845428 417.915710,355.556274 418.020691,354.058777 
	C418.422089,354.999084 418.502014,356.147736 418.465302,357.715454 
z"/>
<path fill="#333331" opacity="1.000000" stroke="none" 
	d="
M418.493408,408.724640 
	C418.161316,407.847382 417.945129,406.547638 418.056641,405.038513 
	C418.459320,405.986786 418.534302,407.144470 418.493408,408.724640 
z"/>
<path fill="#333331" opacity="1.000000" stroke="none" 
	d="
M418.485046,368.753967 
	C418.179901,368.477142 417.985474,367.827515 418.078979,367.018402 
	C418.443207,367.366333 418.519501,367.873749 418.485046,368.753967 
z"/>
<path fill="#2F2F2D" opacity="1.000000" stroke="none" 
	d="
M1154.210205,556.761719 
	C1153.892822,556.823303 1153.701294,556.634766 1153.544067,556.420837 
	C1153.527588,556.398254 1153.714722,556.226196 1153.997803,556.033813 
	C1154.240723,556.130859 1154.293213,556.317627 1154.210205,556.761719 
z"/>
<path fill="#2E2F2E" opacity="1.000000" stroke="none" 
	d="
M1077.873413,568.301270 
	C1078.180298,568.151245 1078.470825,568.330078 1078.877197,568.740967 
	C1078.614502,568.858765 1078.235718,568.744507 1077.873413,568.301270 
z"/>
<path fill="#333331" opacity="1.000000" stroke="none" 
	d="
M418.387756,208.787094 
	C418.144379,208.769211 417.996826,208.457642 418.048767,208.034058 
	C418.326721,208.112518 418.405151,208.302948 418.387756,208.787094 
z"/>
<path fill="#353535" opacity="1.000000" stroke="none" 
	d="
M339.727936,208.231415 
	C340.046722,208.153534 340.254089,208.333572 340.425903,208.542816 
	C340.445770,208.566986 340.268097,208.753372 339.989868,208.958389 
	C339.733734,208.867493 339.669830,208.682770 339.727936,208.231415 
z"/>
<path fill="#FEFEFE" opacity="1.000000" stroke="none" 
	d="
M931.949829,396.966492 
	C932.294983,381.496613 931.453735,366.380280 933.218201,351.574493 
	C937.878357,312.470459 972.594788,281.379913 1011.763245,286.032715 
	C1037.497559,289.089722 1055.861938,303.285400 1068.185791,325.763947 
	C1073.639038,335.710388 1077.007202,346.350891 1077.303101,357.625427 
	C1077.730835,373.921875 1077.412720,390.237915 1077.412720,407.031708 
	C1029.058594,407.031708 980.858704,407.031708 931.951050,407.031708 
	C931.951050,403.962799 931.951050,400.712189 931.949829,396.966492 
z"/>
</svg>